<svg xmlns="http://www.w3.org/2000/svg" xmlns:xlink="http://www.w3.org/1999/xlink" width="500" zoomAndPan="magnify" viewBox="0 0 375 374.999991" height="500" preserveAspectRatio="xMidYMid meet" version="1.0"><defs><clipPath id="879c2b36f7"><path d="M 74 37.5 L 301 37.5 L 301 337.5 L 74 337.5 Z M 74 37.5 " clip-rule="nonzero"/></clipPath></defs><g clip-path="url(#879c2b36f7)"><path fill="#4a2554" d="M 74.054688 37.507812 L 74.054688 100.515625 L 84.871094 100.515625 L 84.871094 48.324219 L 141.363281 48.324219 L 141.363281 37.507812 Z M 127.429688 177.691406 C 133.21875 177.691406 138.585938 174.558594 141.4375 169.515625 L 133.449219 165 C 132.222656 167.167969 129.917969 168.515625 127.429688 168.515625 C 123.621094 168.515625 120.527344 165.417969 120.527344 161.613281 C 120.527344 157.800781 123.621094 154.707031 127.429688 154.707031 L 247.601562 154.707031 C 251.40625 154.707031 254.503906 157.800781 254.503906 161.613281 C 254.503906 165.417969 251.40625 168.515625 247.601562 168.515625 C 245.113281 168.515625 242.804688 167.167969 241.582031 165 L 233.59375 169.515625 C 236.441406 174.558594 241.808594 177.691406 247.601562 177.691406 C 256.464844 177.691406 263.679688 170.476562 263.679688 161.613281 C 263.679688 152.992188 256.863281 145.933594 248.335938 145.546875 L 126.691406 145.527344 L 126.691406 145.546875 C 118.167969 145.933594 111.347656 152.992188 111.347656 161.613281 C 111.347656 170.476562 118.5625 177.691406 127.429688 177.691406 Z M 220.550781 303.769531 L 229.726562 303.769531 L 229.726562 177.675781 L 220.550781 177.675781 Z M 261.539062 328.34375 L 113.492188 328.34375 L 113.492188 337.523438 L 261.539062 337.523438 Z M 149.890625 169.613281 L 225.136719 169.613281 L 225.136719 160.433594 L 149.890625 160.433594 Z M 204.644531 303.769531 L 204.644531 177.675781 L 195.464844 177.675781 L 195.464844 303.769531 Z M 179.5625 303.769531 L 179.5625 177.675781 L 170.382812 177.675781 L 170.382812 303.769531 Z M 145.304688 303.769531 L 154.480469 303.769531 L 154.480469 177.675781 L 145.304688 177.675781 Z M 251.75 128.214844 L 187.515625 108.027344 L 123.277344 128.214844 L 123.277344 137.394531 L 251.75 137.394531 Z M 300.972656 322.027344 L 74.054688 322.027344 L 74.054688 201.472656 L 84.871094 201.472656 L 84.871094 311.210938 L 290.15625 311.210938 L 290.15625 100.515625 L 300.972656 100.515625 L 300.972656 322.027344 " fill-opacity="1" fill-rule="nonzero"/></g></svg>